<svg xmlns="http://www.w3.org/2000/svg" viewBox="0 0 128 128" role="img" aria-labelledby="title">
  <title>HAProxy</title>
  <g fill="none" stroke="#2f4f77" stroke-linecap="round" stroke-linejoin="round">
    <path d="M 64.00 43.00 L 78.85 49.15" stroke-width="2.1"/>
    <path d="M 78.85 49.15 L 85.00 64.00" stroke-width="2.1"/>
    <path d="M 85.00 64.00 L 78.85 78.85" stroke-width="2.1"/>
    <path d="M 78.85 78.85 L 64.00 85.00" stroke-width="2.1"/>
    <path d="M 64.00 85.00 L 49.15 78.85" stroke-width="2.1"/>
    <path d="M 49.15 78.85 L 43.00 64.00" stroke-width="2.1"/>
    <path d="M 43.00 64.00 L 49.15 49.15" stroke-width="2.1"/>
    <path d="M 49.15 49.15 L 64.00 43.00" stroke-width="2.1"/>
    <path d="M 64.00 28.00 L 82.00 32.82" stroke-width="1.8"/>
    <path d="M 82.00 32.82 L 95.18 46.00" stroke-width="1.8"/>
    <path d="M 95.18 46.00 L 100.00 64.00" stroke-width="1.8"/>
    <path d="M 100.00 64.00 L 95.18 82.00" stroke-width="1.8"/>
    <path d="M 95.18 82.00 L 82.00 95.18" stroke-width="1.8"/>
    <path d="M 82.00 95.18 L 64.00 100.00" stroke-width="1.8"/>
    <path d="M 64.00 100.00 L 46.00 95.18" stroke-width="1.8"/>
    <path d="M 46.00 95.18 L 32.82 82.00" stroke-width="1.8"/>
    <path d="M 32.82 82.00 L 28.00 64.00" stroke-width="1.8"/>
    <path d="M 28.00 64.00 L 32.82 46.00" stroke-width="1.8"/>
    <path d="M 32.82 46.00 L 46.00 32.82" stroke-width="1.8"/>
    <path d="M 46.00 32.82 L 64.00 28.00" stroke-width="1.8"/>
    <path d="M 64.00 15.00 L 82.75 18.73" stroke-width="1.4"/>
    <path d="M 82.75 18.73 L 98.65 29.35" stroke-width="1.4"/>
    <path d="M 98.65 29.35 L 109.27 45.25" stroke-width="1.4"/>
    <path d="M 109.27 45.25 L 113.00 64.00" stroke-width="1.4"/>
    <path d="M 113.00 64.00 L 109.27 82.75" stroke-width="1.4"/>
    <path d="M 109.27 82.75 L 98.65 98.65" stroke-width="1.4"/>
    <path d="M 98.65 98.65 L 82.75 109.27" stroke-width="1.4"/>
    <path d="M 82.75 109.27 L 64.00 113.00" stroke-width="1.4"/>
    <path d="M 64.00 113.00 L 45.25 109.27" stroke-width="1.4"/>
    <path d="M 45.25 109.27 L 29.35 98.65" stroke-width="1.4"/>
    <path d="M 29.35 98.65 L 18.73 82.75" stroke-width="1.4"/>
    <path d="M 18.73 82.75 L 15.00 64.00" stroke-width="1.4"/>
    <path d="M 15.00 64.00 L 18.73 45.25" stroke-width="1.4"/>
    <path d="M 18.73 45.25 L 29.35 29.35" stroke-width="1.4"/>
    <path d="M 29.35 29.35 L 45.25 18.73" stroke-width="1.4"/>
    <path d="M 45.25 18.73 L 64.00 15.00" stroke-width="1.4"/>
    <path d="M 64.00 7.00 L 78.75 8.94" stroke-width="1.05"/>
    <path d="M 78.75 8.94 L 92.50 14.64" stroke-width="1.05"/>
    <path d="M 92.50 14.64 L 104.31 23.69" stroke-width="1.05"/>
    <path d="M 104.31 23.69 L 113.36 35.50" stroke-width="1.05"/>
    <path d="M 113.36 35.50 L 119.06 49.25" stroke-width="1.05"/>
    <path d="M 119.06 49.25 L 121.00 64.00" stroke-width="1.05"/>
    <path d="M 121.00 64.00 L 119.06 78.75" stroke-width="1.05"/>
    <path d="M 119.06 78.75 L 113.36 92.50" stroke-width="1.05"/>
    <path d="M 113.36 92.50 L 104.31 104.31" stroke-width="1.05"/>
    <path d="M 104.31 104.31 L 92.50 113.36" stroke-width="1.05"/>
    <path d="M 92.50 113.36 L 78.75 119.06" stroke-width="1.05"/>
    <path d="M 78.75 119.06 L 64.00 121.00" stroke-width="1.05"/>
    <path d="M 64.00 121.00 L 49.25 119.06" stroke-width="1.05"/>
    <path d="M 49.25 119.06 L 35.50 113.36" stroke-width="1.05"/>
    <path d="M 35.50 113.36 L 23.69 104.31" stroke-width="1.05"/>
    <path d="M 23.69 104.31 L 14.64 92.50" stroke-width="1.05"/>
    <path d="M 14.64 92.50 L 8.94 78.75" stroke-width="1.05"/>
    <path d="M 8.94 78.75 L 7.00 64.00" stroke-width="1.05"/>
    <path d="M 7.00 64.00 L 8.94 49.25" stroke-width="1.05"/>
    <path d="M 8.94 49.25 L 14.64 35.50" stroke-width="1.05"/>
    <path d="M 14.64 35.50 L 23.69 23.69" stroke-width="1.05"/>
    <path d="M 23.69 23.69 L 35.50 14.64" stroke-width="1.05"/>
    <path d="M 35.50 14.64 L 49.25 8.94" stroke-width="1.05"/>
    <path d="M 49.25 8.94 L 64.00 7.00" stroke-width="1.05"/>
    <path d="M 64.00 43.00 L 64.00 28.00" stroke-width="2"/>
    <path d="M 64.00 43.00 L 82.00 32.82" stroke-width="2"/>
    <path d="M 78.85 49.15 L 82.00 32.82" stroke-width="2"/>
    <path d="M 78.85 49.15 L 95.18 46.00" stroke-width="2"/>
    <path d="M 85.00 64.00 L 100.00 64.00" stroke-width="2"/>
    <path d="M 85.00 64.00 L 95.18 82.00" stroke-width="2"/>
    <path d="M 78.85 78.85 L 95.18 82.00" stroke-width="2"/>
    <path d="M 78.85 78.85 L 82.00 95.18" stroke-width="2"/>
    <path d="M 64.00 85.00 L 64.00 100.00" stroke-width="2"/>
    <path d="M 64.00 85.00 L 46.00 95.18" stroke-width="2"/>
    <path d="M 49.15 78.85 L 46.00 95.18" stroke-width="2"/>
    <path d="M 49.15 78.85 L 32.82 82.00" stroke-width="2"/>
    <path d="M 43.00 64.00 L 28.00 64.00" stroke-width="2"/>
    <path d="M 43.00 64.00 L 32.82 46.00" stroke-width="2"/>
    <path d="M 49.15 49.15 L 32.82 46.00" stroke-width="2"/>
    <path d="M 49.15 49.15 L 46.00 32.82" stroke-width="2"/>
    <path d="M 64.00 28.00 L 64.00 15.00" stroke-width="1.6"/>
    <path d="M 64.00 28.00 L 82.75 18.73" stroke-width="1.6"/>
    <path d="M 82.00 32.82 L 82.75 18.73" stroke-width="1.6"/>
    <path d="M 82.00 32.82 L 98.65 29.35" stroke-width="1.6"/>
    <path d="M 95.18 46.00 L 98.65 29.35" stroke-width="1.6"/>
    <path d="M 95.18 46.00 L 109.27 45.25" stroke-width="1.6"/>
    <path d="M 100.00 64.00 L 113.00 64.00" stroke-width="1.6"/>
    <path d="M 100.00 64.00 L 109.27 82.75" stroke-width="1.6"/>
    <path d="M 95.18 82.00 L 109.27 82.75" stroke-width="1.6"/>
    <path d="M 95.18 82.00 L 98.65 98.65" stroke-width="1.6"/>
    <path d="M 82.00 95.18 L 98.65 98.65" stroke-width="1.6"/>
    <path d="M 82.00 95.18 L 82.75 109.27" stroke-width="1.6"/>
    <path d="M 64.00 100.00 L 64.00 113.00" stroke-width="1.6"/>
    <path d="M 64.00 100.00 L 45.25 109.27" stroke-width="1.6"/>
    <path d="M 46.00 95.18 L 45.25 109.27" stroke-width="1.6"/>
    <path d="M 46.00 95.18 L 29.35 98.65" stroke-width="1.6"/>
    <path d="M 32.82 82.00 L 29.35 98.65" stroke-width="1.6"/>
    <path d="M 32.82 82.00 L 18.73 82.75" stroke-width="1.6"/>
    <path d="M 28.00 64.00 L 15.00 64.00" stroke-width="1.6"/>
    <path d="M 28.00 64.00 L 18.73 45.25" stroke-width="1.6"/>
    <path d="M 32.82 46.00 L 18.73 45.25" stroke-width="1.6"/>
    <path d="M 32.82 46.00 L 29.35 29.35" stroke-width="1.6"/>
    <path d="M 46.00 32.82 L 29.35 29.35" stroke-width="1.6"/>
    <path d="M 46.00 32.82 L 45.25 18.73" stroke-width="1.6"/>
    <path d="M 64.00 15.00 L 64.00 7.00" stroke-width="1.2"/>
    <path d="M 64.00 15.00 L 78.75 8.94" stroke-width="1.2"/>
    <path d="M 82.75 18.73 L 78.75 8.94" stroke-width="1.2"/>
    <path d="M 82.75 18.73 L 92.50 14.64" stroke-width="1.2"/>
    <path d="M 98.65 29.35 L 104.31 23.69" stroke-width="1.2"/>
    <path d="M 98.65 29.35 L 113.36 35.50" stroke-width="1.2"/>
    <path d="M 109.27 45.25 L 113.36 35.50" stroke-width="1.2"/>
    <path d="M 109.27 45.25 L 119.06 49.25" stroke-width="1.2"/>
    <path d="M 113.00 64.00 L 121.00 64.00" stroke-width="1.2"/>
    <path d="M 113.00 64.00 L 119.06 78.75" stroke-width="1.2"/>
    <path d="M 109.27 82.75 L 119.06 78.75" stroke-width="1.2"/>
    <path d="M 109.27 82.75 L 113.36 92.50" stroke-width="1.2"/>
    <path d="M 98.65 98.65 L 104.31 104.31" stroke-width="1.2"/>
    <path d="M 98.65 98.65 L 92.50 113.36" stroke-width="1.2"/>
    <path d="M 82.75 109.27 L 92.50 113.36" stroke-width="1.2"/>
    <path d="M 82.75 109.27 L 78.75 119.06" stroke-width="1.2"/>
    <path d="M 64.00 113.00 L 64.00 121.00" stroke-width="1.2"/>
    <path d="M 64.00 113.00 L 49.25 119.06" stroke-width="1.2"/>
    <path d="M 45.25 109.27 L 49.25 119.06" stroke-width="1.2"/>
    <path d="M 45.25 109.27 L 35.50 113.36" stroke-width="1.2"/>
    <path d="M 29.35 98.65 L 23.69 104.31" stroke-width="1.2"/>
    <path d="M 29.35 98.65 L 14.64 92.50" stroke-width="1.2"/>
    <path d="M 18.73 82.75 L 14.64 92.50" stroke-width="1.2"/>
    <path d="M 18.73 82.75 L 8.94 78.75" stroke-width="1.2"/>
    <path d="M 15.00 64.00 L 7.00 64.00" stroke-width="1.2"/>
    <path d="M 15.00 64.00 L 8.94 49.25" stroke-width="1.2"/>
    <path d="M 18.73 45.25 L 8.94 49.25" stroke-width="1.2"/>
    <path d="M 18.73 45.25 L 14.64 35.50" stroke-width="1.2"/>
    <path d="M 29.35 29.35 L 23.69 23.69" stroke-width="1.2"/>
    <path d="M 29.35 29.35 L 35.50 14.64" stroke-width="1.2"/>
    <path d="M 45.25 18.73 L 35.50 14.64" stroke-width="1.2"/>
    <path d="M 45.25 18.73 L 49.25 8.94" stroke-width="1.2"/>
    <path d="M 64.00 43.00 L 85.00 64.00" stroke-width="1.7"/>
    <path d="M 78.85 49.15 L 78.85 78.85" stroke-width="1.7"/>
    <path d="M 85.00 64.00 L 64.00 85.00" stroke-width="1.7"/>
    <path d="M 78.85 78.85 L 49.15 78.85" stroke-width="1.7"/>
    <path d="M 64.00 85.00 L 43.00 64.00" stroke-width="1.7"/>
    <path d="M 49.15 78.85 L 49.15 49.15" stroke-width="1.7"/>
    <path d="M 43.00 64.00 L 64.00 43.00" stroke-width="1.7"/>
    <path d="M 49.15 49.15 L 78.85 49.15" stroke-width="1.7"/>
  </g>
  <g>
    <rect x="58.00" y="37.00" width="12" height="12" fill="#4d74aa"/>
    <rect x="72.85" y="43.15" width="12" height="12" fill="#4d74aa"/>
    <rect x="79.00" y="58.00" width="12" height="12" fill="#4d74aa"/>
    <rect x="72.85" y="72.85" width="12" height="12" fill="#4d74aa"/>
    <rect x="58.00" y="79.00" width="12" height="12" fill="#4d74aa"/>
    <rect x="43.15" y="72.85" width="12" height="12" fill="#4d74aa"/>
    <rect x="37.00" y="58.00" width="12" height="12" fill="#4d74aa"/>
    <rect x="43.15" y="43.15" width="12" height="12" fill="#4d74aa"/>
    <rect x="59.50" y="23.50" width="9" height="9" fill="#5f8fc2"/>
    <rect x="77.50" y="28.32" width="9" height="9" fill="#5f8fc2"/>
    <rect x="90.68" y="41.50" width="9" height="9" fill="#5f8fc2"/>
    <rect x="95.50" y="59.50" width="9" height="9" fill="#5f8fc2"/>
    <rect x="90.68" y="77.50" width="9" height="9" fill="#5f8fc2"/>
    <rect x="77.50" y="90.68" width="9" height="9" fill="#5f8fc2"/>
    <rect x="59.50" y="95.50" width="9" height="9" fill="#5f8fc2"/>
    <rect x="41.50" y="90.68" width="9" height="9" fill="#5f8fc2"/>
    <rect x="28.32" y="77.50" width="9" height="9" fill="#5f8fc2"/>
    <rect x="23.50" y="59.50" width="9" height="9" fill="#5f8fc2"/>
    <rect x="28.32" y="41.50" width="9" height="9" fill="#5f8fc2"/>
    <rect x="41.50" y="28.32" width="9" height="9" fill="#5f8fc2"/>
    <rect x="60.50" y="11.50" width="7" height="7" fill="#6fa9d8"/>
    <rect x="79.25" y="15.23" width="7" height="7" fill="#6fa9d8"/>
    <rect x="95.15" y="25.85" width="7" height="7" fill="#6fa9d8"/>
    <rect x="105.77" y="41.75" width="7" height="7" fill="#6fa9d8"/>
    <rect x="109.50" y="60.50" width="7" height="7" fill="#6fa9d8"/>
    <rect x="105.77" y="79.25" width="7" height="7" fill="#6fa9d8"/>
    <rect x="95.15" y="95.15" width="7" height="7" fill="#6fa9d8"/>
    <rect x="79.25" y="105.77" width="7" height="7" fill="#6fa9d8"/>
    <rect x="60.50" y="109.50" width="7" height="7" fill="#6fa9d8"/>
    <rect x="41.75" y="105.77" width="7" height="7" fill="#6fa9d8"/>
    <rect x="25.85" y="95.15" width="7" height="7" fill="#6fa9d8"/>
    <rect x="15.23" y="79.25" width="7" height="7" fill="#6fa9d8"/>
    <rect x="11.50" y="60.50" width="7" height="7" fill="#6fa9d8"/>
    <rect x="15.23" y="41.75" width="7" height="7" fill="#6fa9d8"/>
    <rect x="25.85" y="25.85" width="7" height="7" fill="#6fa9d8"/>
    <rect x="41.75" y="15.23" width="7" height="7" fill="#6fa9d8"/>
    <rect x="61.90" y="4.90" width="4.2" height="4.2" fill="#79b7e6"/>
    <rect x="76.65" y="6.84" width="4.2" height="4.2" fill="#79b7e6"/>
    <rect x="90.40" y="12.54" width="4.2" height="4.2" fill="#79b7e6"/>
    <rect x="102.21" y="21.59" width="4.2" height="4.2" fill="#79b7e6"/>
    <rect x="111.26" y="33.40" width="4.2" height="4.2" fill="#79b7e6"/>
    <rect x="116.96" y="47.15" width="4.2" height="4.2" fill="#79b7e6"/>
    <rect x="118.90" y="61.90" width="4.2" height="4.2" fill="#79b7e6"/>
    <rect x="116.96" y="76.65" width="4.2" height="4.2" fill="#79b7e6"/>
    <rect x="111.26" y="90.40" width="4.2" height="4.2" fill="#79b7e6"/>
    <rect x="102.21" y="102.21" width="4.2" height="4.2" fill="#79b7e6"/>
    <rect x="90.40" y="111.26" width="4.2" height="4.2" fill="#79b7e6"/>
    <rect x="76.65" y="116.96" width="4.2" height="4.2" fill="#79b7e6"/>
    <rect x="61.90" y="118.90" width="4.2" height="4.2" fill="#79b7e6"/>
    <rect x="47.15" y="116.96" width="4.2" height="4.2" fill="#79b7e6"/>
    <rect x="33.40" y="111.26" width="4.2" height="4.2" fill="#79b7e6"/>
    <rect x="21.59" y="102.21" width="4.2" height="4.2" fill="#79b7e6"/>
    <rect x="12.54" y="90.40" width="4.2" height="4.2" fill="#79b7e6"/>
    <rect x="6.84" y="76.65" width="4.2" height="4.2" fill="#79b7e6"/>
    <rect x="4.90" y="61.90" width="4.2" height="4.2" fill="#79b7e6"/>
    <rect x="6.84" y="47.15" width="4.2" height="4.2" fill="#79b7e6"/>
    <rect x="12.54" y="33.40" width="4.2" height="4.2" fill="#79b7e6"/>
    <rect x="21.59" y="21.59" width="4.2" height="4.2" fill="#79b7e6"/>
    <rect x="33.40" y="12.54" width="4.2" height="4.2" fill="#79b7e6"/>
    <rect x="47.15" y="6.84" width="4.2" height="4.2" fill="#79b7e6"/>
  </g>
</svg>
