<svg xmlns="http://www.w3.org/2000/svg" viewBox="0 0 256 180" role="img" aria-labelledby="title">
  <title>AWS</title>
  <g transform="translate(-9 -8) scale(1.08)">
    <path
      d="M61 153c-24 0-43-19-43-43 0-23 18-42 41-43 6-31 34-54 67-54 26 0 50 15 61 38 5-1 10-2 15-2 31 0 56 25 56 56 0 27-19 50-45 55H61Z"
      fill="#ececec"
      stroke="#ff9900"
      stroke-linecap="round"
      stroke-linejoin="round"
      stroke-width="10"
    />
    <text
      x="128"
      y="92"
      fill="#1a2f45"
      font-family="Arial, Helvetica, sans-serif"
      font-size="58"
      text-anchor="middle"
      letter-spacing="1"
    >
      aws
    </text>
    <path
      d="M79 111c21 17 53 26 81 26 22 0 45-5 63-18"
      fill="none"
      stroke="#ff9900"
      stroke-linecap="round"
      stroke-width="8"
    />
    <path
      d="M170 112c9-2 17-2 22 0 4 2 2 12-1 18"
      fill="none"
      stroke="#ff9900"
      stroke-linecap="round"
      stroke-linejoin="round"
      stroke-width="8"
    />
  </g>
</svg>
