<svg width="215" height="94" viewBox="0 0 215 94" fill="none" xmlns="http://www.w3.org/2000/svg">
<path d="M51.5 20L22 45L51.5 73" stroke="url(#paint0_linear_0_3)" stroke-width="5"/>
<path d="M164 20L193.5 45L164 73" stroke="url(#paint1_linear_0_3)" stroke-width="5"/>
<path d="M53.35 52V41.53H57.16C58.13 41.53 58.87 41.795 59.38 42.325C59.89 42.855 60.145 43.595 60.145 44.545C60.145 45.495 59.89 46.235 59.38 46.765C58.87 47.295 58.13 47.56 57.16 47.56H54.61V52H53.35ZM54.61 46.465H57.13C57.66 46.465 58.07 46.335 58.36 46.075C58.66 45.805 58.81 45.425 58.81 44.935V44.155C58.81 43.665 58.66 43.29 58.36 43.03C58.07 42.76 57.66 42.625 57.13 42.625H54.61V46.465ZM65.4941 52.18C64.9541 52.18 64.4641 52.085 64.0241 51.895C63.5941 51.705 63.2241 51.435 62.9141 51.085C62.6141 50.725 62.3841 50.3 62.2241 49.81C62.0641 49.31 61.9841 48.75 61.9841 48.13C61.9841 47.52 62.0641 46.965 62.2241 46.465C62.3841 45.965 62.6141 45.54 62.9141 45.19C63.2241 44.83 63.5941 44.555 64.0241 44.365C64.4641 44.175 64.9541 44.08 65.4941 44.08C66.0341 44.08 66.5191 44.175 66.9491 44.365C67.3891 44.555 67.7591 44.83 68.0591 45.19C68.3691 45.54 68.6041 45.965 68.7641 46.465C68.9241 46.965 69.0041 47.52 69.0041 48.13C69.0041 48.75 68.9241 49.31 68.7641 49.81C68.6041 50.3 68.3691 50.725 68.0591 51.085C67.7591 51.435 67.3891 51.705 66.9491 51.895C66.5191 52.085 66.0341 52.18 65.4941 52.18ZM65.4941 51.145C66.1641 51.145 66.7041 50.945 67.1141 50.545C67.5241 50.145 67.7291 49.525 67.7291 48.685V47.575C67.7291 46.735 67.5241 46.115 67.1141 45.715C66.7041 45.315 66.1641 45.115 65.4941 45.115C64.8241 45.115 64.2841 45.315 63.8741 45.715C63.4641 46.115 63.2591 46.735 63.2591 47.575V48.685C63.2591 49.525 63.4641 50.145 63.8741 50.545C64.2841 50.945 64.8241 51.145 65.4941 51.145ZM71.1433 50.98H73.4083V45.28H71.1433V44.26H74.6083V46.21H74.6833C74.8433 45.6 75.1433 45.125 75.5833 44.785C76.0333 44.435 76.6033 44.26 77.2933 44.26H78.3733V45.46H76.9183C76.2283 45.46 75.6683 45.66 75.2383 46.06C74.8183 46.46 74.6083 46.985 74.6083 47.635V50.98H77.6083V52H71.1433V50.98ZM83.8574 52C83.2674 52 82.8324 51.835 82.5524 51.505C82.2824 51.175 82.1474 50.75 82.1474 50.23V45.28H79.5674V44.26H81.4874C81.7474 44.26 81.9274 44.21 82.0274 44.11C82.1374 44 82.1924 43.815 82.1924 43.555V41.53H83.3474V44.26H86.8724V45.28H83.3474V50.98H86.8724V52H83.8574ZM89.2216 50.98H91.8316V45.28H89.0716V44.26H91.8316V42.67C91.8316 42.15 91.9666 41.725 92.2366 41.395C92.5166 41.065 92.9516 40.9 93.5416 40.9H96.1366V41.92H93.0316V44.26H96.1366V45.28H93.0316V50.98H95.7916V52H89.2216V50.98ZM101.471 52.18C100.931 52.18 100.441 52.085 100.001 51.895C99.5707 51.705 99.2007 51.435 98.8907 51.085C98.5907 50.725 98.3607 50.3 98.2007 49.81C98.0407 49.31 97.9607 48.75 97.9607 48.13C97.9607 47.52 98.0407 46.965 98.2007 46.465C98.3607 45.965 98.5907 45.54 98.8907 45.19C99.2007 44.83 99.5707 44.555 100.001 44.365C100.441 44.175 100.931 44.08 101.471 44.08C102.011 44.08 102.496 44.175 102.926 44.365C103.366 44.555 103.736 44.83 104.036 45.19C104.346 45.54 104.581 45.965 104.741 46.465C104.901 46.965 104.981 47.52 104.981 48.13C104.981 48.75 104.901 49.31 104.741 49.81C104.581 50.3 104.346 50.725 104.036 51.085C103.736 51.435 103.366 51.705 102.926 51.895C102.496 52.085 102.011 52.18 101.471 52.18ZM101.471 51.145C102.141 51.145 102.681 50.945 103.091 50.545C103.501 50.145 103.706 49.525 103.706 48.685V47.575C103.706 46.735 103.501 46.115 103.091 45.715C102.681 45.315 102.141 45.115 101.471 45.115C100.801 45.115 100.261 45.315 99.8507 45.715C99.4407 46.115 99.2357 46.735 99.2357 47.575V48.685C99.2357 49.525 99.4407 50.145 99.8507 50.545C100.261 50.945 100.801 51.145 101.471 51.145ZM107.165 50.98H109.865V41.92H107.165V40.9H111.065V50.98H113.765V52H107.165V50.98ZM119.939 42.55C119.589 42.55 119.344 42.48 119.204 42.34C119.064 42.19 118.994 42.005 118.994 41.785V41.545C118.994 41.325 119.064 41.145 119.204 41.005C119.344 40.855 119.589 40.78 119.939 40.78C120.289 40.78 120.534 40.855 120.674 41.005C120.814 41.145 120.884 41.325 120.884 41.545V41.785C120.884 42.005 120.814 42.19 120.674 42.34C120.534 42.48 120.289 42.55 119.939 42.55ZM116.549 50.98H119.339V45.28H116.549V44.26H120.539V50.98H123.149V52H116.549V50.98ZM128.453 52.18C127.913 52.18 127.423 52.085 126.983 51.895C126.553 51.705 126.183 51.435 125.873 51.085C125.573 50.725 125.343 50.3 125.183 49.81C125.023 49.31 124.943 48.75 124.943 48.13C124.943 47.52 125.023 46.965 125.183 46.465C125.343 45.965 125.573 45.54 125.873 45.19C126.183 44.83 126.553 44.555 126.983 44.365C127.423 44.175 127.913 44.08 128.453 44.08C128.993 44.08 129.478 44.175 129.908 44.365C130.348 44.555 130.718 44.83 131.018 45.19C131.328 45.54 131.563 45.965 131.723 46.465C131.883 46.965 131.963 47.52 131.963 48.13C131.963 48.75 131.883 49.31 131.723 49.81C131.563 50.3 131.328 50.725 131.018 51.085C130.718 51.435 130.348 51.705 129.908 51.895C129.478 52.085 128.993 52.18 128.453 52.18ZM128.453 51.145C129.123 51.145 129.663 50.945 130.073 50.545C130.483 50.145 130.688 49.525 130.688 48.685V47.575C130.688 46.735 130.483 46.115 130.073 45.715C129.663 45.315 129.123 45.115 128.453 45.115C127.783 45.115 127.243 45.315 126.833 45.715C126.423 46.115 126.218 46.735 126.218 47.575V48.685C126.218 49.525 126.423 50.145 126.833 50.545C127.243 50.945 127.783 51.145 128.453 51.145Z" fill="white"/>
<path d="M136 73L157 20" stroke="url(#paint2_linear_0_3)" stroke-width="5"/>
<defs>
<linearGradient id="paint0_linear_0_3" x1="33.75" y1="20" x2="24" y2="66.5" gradientUnits="userSpaceOnUse">
<stop stop-color="#04CEEF"/>
<stop offset="1" stop-color="#522186"/>
</linearGradient>
<linearGradient id="paint1_linear_0_3" x1="181.75" y1="20" x2="191.5" y2="66.5" gradientUnits="userSpaceOnUse">
<stop stop-color="#04CEEF"/>
<stop offset="1" stop-color="#522186"/>
</linearGradient>
<linearGradient id="paint2_linear_0_3" x1="136" y1="37.3455" x2="146.334" y2="61.7186" gradientUnits="userSpaceOnUse">
<stop stop-color="#04CEEF"/>
<stop offset="1" stop-color="#522186"/>
</linearGradient>
</defs>
</svg>
